<svg width="152" height="51" viewBox="0 0 152 51" fill="none" xmlns="http://www.w3.org/2000/svg">
<ellipse cx="25.4942" cy="25.501" rx="25.4942" ry="25.4827" fill="white"/>
<path d="M13.3859 33.8015C12.5516 32.788 11.7932 31.6839 11.1502 30.5534L11.0529 30.3737C9.6878 28.0039 8.80903 25.2716 8.51555 22.475L8.50401 22.3777C8.25176 19.7525 8.94752 17.1833 10.3654 15.5172C11.4734 14.2301 13.0693 13.4572 14.7164 13.388L15.0132 13.3847C16.7691 13.3847 18.4178 14.1626 19.5257 15.4941L19.5785 15.5633C20.9717 17.2904 21.5059 19.858 20.975 22.2772C19.8835 27.3101 16.2629 31.3246 13.4469 33.7834L13.4024 33.8196L13.3859 33.8032V33.8015Z" fill="#00D1BD"/>
<path d="M37.5824 33.8017C34.74 31.3215 31.1177 27.3087 30.0263 22.2708C29.497 19.8565 30.0345 17.2873 31.4392 15.5454L31.4557 15.5207C32.5834 14.1611 34.2338 13.3833 36.021 13.3833H36.1018L36.2601 13.3866C37.9302 13.4558 39.5262 14.2287 40.6309 15.5075C42.0521 17.1802 42.7495 19.7494 42.4972 22.3763L42.489 22.4653C42.1922 25.2701 41.3118 28.0025 39.9351 30.397L39.8626 30.5321C39.2113 31.6841 38.4529 32.7882 37.6137 33.8017L37.6021 33.8182L37.5824 33.8017Z" fill="#00D1BD"/>
<path d="M37.8515 36.6426C40.2059 38.4785 42.7268 39.9897 45.5411 41.2553C43.7902 43.4817 41.6716 45.4115 39.2727 46.9557C39.2562 46.9672 39.2364 46.9754 39.2199 46.9886C38.849 47.2243 38.4747 47.4534 38.0922 47.6692C38.0642 47.689 38.0312 47.7055 37.9982 47.7269C37.6108 47.9461 37.2118 48.1587 36.8095 48.3581C36.7979 48.3614 36.7848 48.3696 36.7732 48.3746C35.5268 48.9942 34.2226 49.5067 32.8707 49.9138C32.7652 49.9467 32.6629 49.9748 32.5607 50.0028C32.226 50.0967 31.893 50.1906 31.5501 50.2714C31.4116 50.3044 31.2731 50.3373 31.1313 50.3686C30.8263 50.4378 30.5163 50.5038 30.203 50.5598C30.0481 50.5878 29.8898 50.6175 29.7348 50.6405C29.4298 50.6933 29.1198 50.7378 28.8099 50.779C28.6516 50.7988 28.4917 50.8202 28.3334 50.8367C28.0036 50.8729 27.6739 50.9026 27.3392 50.9256C27.2007 50.9339 27.0622 50.9504 26.9237 50.9586C26.4505 50.9833 25.979 50.9998 25.4976 50.9998H25.4646C24.9997 50.9965 24.5397 50.9833 24.083 50.9586C23.9198 50.9504 23.7565 50.9339 23.595 50.9223C23.2899 50.8976 22.9833 50.8729 22.6832 50.8416C22.5002 50.8218 22.3172 50.7971 22.1342 50.7724C21.8539 50.7361 21.5769 50.6949 21.2999 50.6504C21.1169 50.6175 20.929 50.5845 20.746 50.5483C20.469 50.4988 20.192 50.4428 19.9183 50.3818C19.7468 50.3406 19.5721 50.3044 19.4006 50.2599C19.1038 50.1874 18.8104 50.1099 18.5169 50.0242C18.3751 49.983 18.2317 49.9467 18.0932 49.9055C17.7057 49.7869 17.3232 49.6616 16.944 49.5265C16.9028 49.51 16.8583 49.4985 16.817 49.482C15.9284 49.1607 15.0694 48.7899 14.2302 48.3779C14.1972 48.3614 14.1643 48.3416 14.128 48.3251C13.7455 48.134 13.3663 47.9296 12.992 47.722C12.9557 47.6973 12.9145 47.6775 12.8782 47.6561C12.499 47.4369 12.1248 47.2127 11.7588 46.9754C11.7423 46.9639 11.7258 46.9557 11.706 46.9425C9.32689 45.4082 7.21652 43.49 5.47053 41.2718C5.46723 41.2718 5.46228 41.2685 5.46228 41.2635C5.46228 41.2635 5.46118 41.2608 5.45898 41.2553C8.2783 39.9897 10.7992 38.4785 13.1701 36.6294L13.1734 36.6261L13.2871 36.7481C13.6779 37.1518 14.0818 37.5424 14.5171 37.9412C17.5474 40.7263 22.121 43.5361 25.5025 43.5361C28.8841 43.5361 33.4527 40.7263 36.4847 37.9462C36.9249 37.5424 37.3239 37.1518 37.7146 36.7497L37.8284 36.6278L37.8531 36.6443L37.8515 36.6426Z" fill="#00D1BD"/>
<path d="M51 25.4316V25.57C51 25.9326 50.9885 26.2952 50.972 26.6528C50.9687 26.7994 50.9555 26.9461 50.9472 27.0878C50.9357 27.3317 50.9143 27.569 50.8945 27.808C50.878 27.9662 50.8665 28.1261 50.85 28.2843C50.817 28.5578 50.784 28.8297 50.7444 29.0984C50.7115 29.3307 50.6752 29.5581 50.6389 29.7872C50.6027 29.9982 50.5664 30.2058 50.5252 30.4134C50.4922 30.6013 50.4526 30.7793 50.4114 30.9639C50.3702 31.1468 50.3306 31.3347 50.2845 31.5176C50.2399 31.6923 50.1987 31.8719 50.1509 32.0515C50.085 32.3086 50.0091 32.569 49.9349 32.8211C49.869 33.037 49.7997 33.2529 49.7305 33.4639C49.6645 33.66 49.6002 33.8511 49.5343 34.0423C49.4733 34.2137 49.4123 34.3801 49.3463 34.5466C49.2771 34.7262 49.2078 34.9009 49.1386 35.0756C49.0693 35.242 49.0034 35.4101 48.9342 35.5716C48.8451 35.776 48.7544 35.9704 48.6654 36.1665C48.5269 36.4681 48.3802 36.7648 48.2334 37.0548C48.184 37.1438 48.1444 37.2344 48.0949 37.3234C47.6877 38.0963 47.2442 38.8495 46.7628 39.5746H46.7595C43.9616 38.3485 41.477 36.8801 39.1836 35.1003V35.097C40.1003 33.9929 40.923 32.7931 41.6484 31.5176L41.7177 31.3874C43.2213 28.777 44.1908 25.7645 44.5156 22.6745L44.5238 22.5773C44.8338 19.4099 43.9583 16.2754 42.181 14.1858C40.7021 12.4752 38.5769 11.4419 36.3198 11.3529H36.2093C36.1483 11.3496 36.079 11.3496 35.99 11.3496C33.6274 11.3496 31.4033 12.3961 29.8683 14.2484L29.8403 14.2847C28.0728 16.4798 27.3804 19.7082 28.0366 22.7091C28.64 25.4893 29.9178 27.9695 31.4329 30.0954C32.9481 32.2213 34.6991 33.9879 36.2472 35.3393C35.8845 35.7133 35.5135 36.0759 35.1112 36.4467C32.3694 38.9582 28.1915 41.5027 25.5025 41.5027C22.8134 41.5027 18.6306 38.9582 15.8937 36.4467C15.4865 36.0759 15.1155 35.7133 14.7577 35.3393C17.8326 32.6563 21.7549 28.2876 22.9651 22.7091C23.6213 19.7082 22.9321 16.4798 21.1729 14.3012L21.1119 14.2237C19.5967 12.3961 17.3726 11.3496 14.977 11.3496C14.9111 11.3496 14.8468 11.3496 14.7858 11.3529L14.6588 11.3562C12.4231 11.4419 10.2963 12.4752 8.81408 14.1891C7.0417 16.2738 6.16623 19.4082 6.47619 22.5757L6.48443 22.6778C6.81088 25.7645 7.78033 28.777 9.27078 31.3627L9.36476 31.5374C10.077 32.7915 10.8997 33.9929 11.8164 35.1003C9.50655 36.8884 7.03511 38.3485 4.24052 39.5746C2.60334 37.1075 1.38493 34.3389 0.684221 31.3742C0.65949 31.272 0.634759 31.1666 0.614974 31.0611C0.562215 30.8337 0.512753 30.6013 0.468238 30.3657C0.440209 30.2239 0.415479 30.0806 0.390748 29.9339C0.333042 29.6158 0.285229 29.2945 0.240714 28.9731C0.207739 28.749 0.179711 28.5249 0.15498 28.2974C0.135195 28.131 0.122006 27.9629 0.105518 27.7965C0.0857337 27.5641 0.0692464 27.3284 0.0527592 27.0928C0.0445156 26.9461 0.0329745 26.7994 0.0280283 26.6528C0.0115411 26.2952 0 25.9326 0 25.57V25.4316C0 25.0658 0.0115411 24.7065 0.0280283 24.3439C0.0313258 24.1973 0.0445156 24.0555 0.0527592 23.9089C0.0692464 23.6683 0.0857337 23.4277 0.105518 23.1887C0.122006 23.0305 0.133547 22.8706 0.150034 22.7124C0.183008 22.4389 0.215983 22.1703 0.255552 21.8983C0.288527 21.6709 0.324799 21.4419 0.361071 21.2144C0.397343 21.0035 0.433615 20.7909 0.474833 20.5833C0.511105 20.4003 0.547377 20.2174 0.588595 20.0328C0.629813 19.8499 0.669382 19.667 0.715546 19.4824C0.760062 19.3028 0.80128 19.1248 0.850742 18.9485C0.919988 18.6881 0.992532 18.431 1.07002 18.1756C1.13103 17.9597 1.20027 17.7487 1.26952 17.5328C1.33547 17.3417 1.39977 17.1456 1.46901 16.9544C1.52672 16.788 1.59102 16.6166 1.65202 16.4501C1.72127 16.2754 1.79051 16.0958 1.86306 15.9211C1.92901 15.7547 1.99331 15.5866 2.0675 15.4251C2.15323 15.2257 2.24227 15.0296 2.33624 14.8302C2.47474 14.5335 2.61653 14.2352 2.76821 13.9419C2.81272 13.8529 2.85724 13.7623 2.9034 13.6766C4.96101 9.75109 8.01115 6.42877 11.7257 4.04414C11.7422 4.0326 11.762 4.01942 11.7785 4.00788C12.1495 3.77222 12.5237 3.54315 12.9062 3.32727C12.9392 3.31079 12.9672 3.29101 13.0002 3.27453C13.3909 3.05535 13.7866 2.84276 14.1889 2.64336C14.2005 2.63512 14.2137 2.63182 14.2252 2.62358C15.4716 2.00889 16.7791 1.49142 18.131 1.08437C18.2332 1.05635 18.3355 1.02669 18.441 0.998675C18.7707 0.901444 19.1087 0.810806 19.4467 0.730055C19.5852 0.693799 19.7237 0.664135 19.8655 0.632824C20.1705 0.563609 20.4854 0.49769 20.7937 0.441658C20.952 0.413643 21.107 0.383979 21.262 0.355963C21.5719 0.306524 21.8769 0.262029 22.1902 0.220829C22.3452 0.201053 22.5034 0.176334 22.6634 0.159854C22.9931 0.123598 23.3278 0.0939348 23.6575 0.074159C23.7993 0.0626232 23.9345 0.0494394 24.0763 0.0411995C24.5446 0.0131838 25.0177 0 25.4975 0H25.5305C25.9954 0 26.4554 0.0164798 26.9154 0.0411995C27.0787 0.0494394 27.2369 0.0659191 27.4002 0.077455C27.7052 0.0972307 28.0118 0.12195 28.3119 0.15491C28.4949 0.174686 28.6779 0.204349 28.8659 0.227421C29.1429 0.263677 29.4198 0.299932 29.6968 0.349371C29.8848 0.377387 30.0678 0.410347 30.2508 0.446602C30.5278 0.499338 30.8048 0.557017 31.0785 0.617992C31.2499 0.654248 31.4247 0.695447 31.5962 0.736647C31.8929 0.809158 32.1864 0.891557 32.4799 0.972308C32.6217 1.01351 32.7651 1.04976 32.9036 1.09426C33.291 1.21291 33.6736 1.33816 34.0528 1.47329C34.094 1.48483 34.1385 1.50131 34.1797 1.51449C35.0684 1.83585 35.9307 2.20664 36.7666 2.62193C36.8028 2.63841 36.8358 2.65489 36.8688 2.67137C37.2562 2.86748 37.6338 3.06689 38.0047 3.27783C38.046 3.29761 38.0822 3.32233 38.1185 3.34375C38.4977 3.55963 38.872 3.78706 39.238 4.02436C39.2578 4.0326 39.2743 4.04414 39.2908 4.05238C41.6699 5.58665 43.7802 7.50819 45.5262 9.72307C45.5262 9.72307 45.529 9.72692 45.5345 9.73461C47.7949 12.5971 49.4485 15.9557 50.3125 19.6192C50.3372 19.7247 50.3619 19.8268 50.385 19.9323C50.4345 20.1647 50.4823 20.397 50.5268 20.6278C50.5548 20.7695 50.5796 20.9161 50.6043 21.0595C50.662 21.3809 50.7148 21.6989 50.7543 22.0203C50.7873 22.2477 50.8153 22.4718 50.8401 22.696C50.8599 22.8624 50.873 23.0305 50.8895 23.197C50.9093 23.4326 50.9308 23.665 50.9423 23.9006C50.9505 24.0473 50.9621 24.194 50.967 24.3406C50.9835 24.7032 50.9951 25.0608 50.9951 25.4283L51 25.4316Z" fill="#00D1BD"/>
<path d="M150.792 11.4512V26.471H146.606V11.4512H150.792ZM146.111 7.61357C146.111 6.9078 146.353 6.30127 146.837 5.794C147.342 5.26467 147.935 5 148.616 5C149.342 5 149.957 5.25364 150.462 5.76091C150.99 6.26819 151.253 6.88574 151.253 7.61357C151.253 8.38552 151.001 9.0141 150.495 9.49932C150.012 9.98454 149.386 10.2272 148.616 10.2272C147.891 10.2272 147.287 9.98454 146.804 9.49932C146.342 8.99204 146.111 8.36346 146.111 7.61357Z" fill="#171725"/>
<path d="M132.856 26.471H129.494V7.48124L133.647 5.13233V13.1385C134.109 12.4327 134.757 11.8813 135.592 11.4843C136.251 11.1755 136.977 11.0211 137.768 11.0211C139.987 11.0211 141.723 11.7821 142.976 13.3039C144.075 14.6493 144.624 16.4358 144.624 18.6634C144.624 21.5306 143.811 23.7031 142.185 25.1808C140.91 26.3056 139.339 26.868 137.471 26.868C135.625 26.868 134.197 26.2394 133.186 24.9823L132.856 26.471ZM133.647 17.4724V21.0785C133.713 21.8945 134.043 22.5782 134.636 23.1296C135.252 23.681 135.966 23.9567 136.779 23.9567C137.834 23.9567 138.669 23.5156 139.284 22.6334C139.899 21.7511 140.207 20.5381 140.207 18.9942C140.207 17.4724 139.921 16.2704 139.35 15.3881C138.779 14.5059 137.987 14.0648 136.977 14.0648C136.054 14.0648 135.263 14.3956 134.603 15.0573C133.966 15.719 133.647 16.524 133.647 17.4724Z" fill="#171725"/>
<path d="M115.649 26.471H112.287V7.48124L116.44 5.13233V13.1385C116.902 12.4327 117.55 11.8813 118.385 11.4843C119.044 11.1755 119.77 11.0211 120.561 11.0211C122.78 11.0211 124.516 11.7821 125.769 13.3039C126.868 14.6493 127.417 16.4358 127.417 18.6634C127.417 21.5306 126.604 23.7031 124.978 25.1808C123.703 26.3056 122.132 26.868 120.264 26.868C118.418 26.868 116.99 26.2394 115.979 24.9823L115.649 26.471ZM116.44 17.4724V21.0785C116.506 21.8945 116.836 22.5782 117.429 23.1296C118.045 23.681 118.759 23.9567 119.572 23.9567C120.627 23.9567 121.462 23.5156 122.077 22.6334C122.692 21.7511 123 20.5381 123 18.9942C123 17.4724 122.714 16.2704 122.143 15.3881C121.572 14.5059 120.78 14.0648 119.77 14.0648C118.847 14.0648 118.056 14.3956 117.396 15.0573C116.759 15.719 116.44 16.524 116.44 17.4724Z" fill="#171725"/>
<path d="M109.335 11.4512V26.471H105.149V11.4512H109.335ZM104.654 7.61357C104.654 6.9078 104.896 6.30127 105.379 5.794C105.885 5.26467 106.478 5 107.159 5C107.885 5 108.5 5.25364 109.005 5.76091C109.533 6.26819 109.796 6.88574 109.796 7.61357C109.796 8.38552 109.544 9.0141 109.038 9.49932C108.555 9.98454 107.929 10.2272 107.159 10.2272C106.434 10.2272 105.83 9.98454 105.347 9.49932C104.885 8.99204 104.654 8.36346 104.654 7.61357Z" fill="#171725"/>
<path d="M102.841 14.7926H98.5558V22.2364C98.5558 23.3391 98.9184 23.8905 99.6436 23.8905C100.303 23.8905 101.127 23.6038 102.116 23.0304L103.5 25.1477C101.94 26.3828 100.215 27.0003 98.3251 27.0003C95.6881 27.0003 94.3696 25.5447 94.3696 22.6334V14.7926H92.293V11.4512H94.4026V8.77149C95.5013 8.17599 96.8967 7.43713 98.5888 6.55491V11.4512H102.841V14.7926Z" fill="#171725"/>
<path d="M90.2744 5.13233V26.471H86.1211V7.31583L90.2744 5.13233Z" fill="#171725"/>
<path d="M73.6803 5.52933H77.3061L84.9864 26.471H80.6024C80.2288 25.3682 79.7673 23.9126 79.218 22.104H71.7355C71.4278 23.0965 70.9554 24.5522 70.3181 26.471H66L73.6803 5.52933ZM75.5262 11.1866C74.9109 12.9289 74.0648 15.3771 72.988 18.531H77.9983C76.9655 15.4874 76.1415 13.0392 75.5262 11.1866Z" fill="#171725"/>
<path d="M106.654 36.7678C105.801 36.34 104.942 36.1261 104.077 36.1261C103.463 36.1261 102.961 36.2708 102.573 36.5602C102.184 36.837 101.99 37.1956 101.99 37.6361C101.99 38.4288 102.51 39.0202 103.551 39.4103C105.105 39.9891 106.209 40.5994 106.861 41.2412C107.512 41.8703 107.838 42.6505 107.838 43.5817C107.838 44.7142 107.406 45.6013 106.541 46.243C105.839 46.7715 104.967 47.0358 103.927 47.0358C102.686 47.0358 101.394 46.6079 100.053 45.7523L100.805 44.6764C101.645 45.1923 102.623 45.4503 103.739 45.4503C105.268 45.4503 106.033 44.8022 106.033 43.5062C106.033 42.4995 105.387 41.776 104.096 41.3355C102.742 40.87 101.758 40.354 101.143 39.7878C100.542 39.2216 100.241 38.5358 100.241 37.7304C100.241 36.7741 100.611 36.0065 101.35 35.4277C102.027 34.8992 102.918 34.6349 104.021 34.6349C105.262 34.6349 106.39 34.9873 107.406 35.6919L106.654 36.7678Z" fill="#00D1BD"/>
<path d="M98.1469 45.6579C97.0938 46.5765 95.9466 47.0358 94.7054 47.0358C92.9 47.0358 91.5021 46.3374 90.5117 44.9407C89.7344 43.8333 89.3457 42.5058 89.3457 40.958C89.3457 39.1964 89.8284 37.6927 90.7938 36.4469C91.7466 35.2389 92.9565 34.6349 94.4233 34.6349C95.7272 34.6349 96.9183 35.0691 97.9965 35.9373L97.3007 36.9943C96.4481 36.4281 95.6019 36.1449 94.7618 36.1449C93.6209 36.1449 92.7245 36.6168 92.0726 37.5606C91.4833 38.4162 91.1887 39.5487 91.1887 40.958C91.1887 42.3548 91.5585 43.4747 92.2983 44.3178C92.9753 45.098 93.8529 45.488 94.9311 45.488C95.746 45.488 96.586 45.1923 97.4511 44.6009L98.1469 45.6579Z" fill="#00D1BD"/>
<path d="M82.2483 47.0358C80.4806 47.0358 79.1203 46.3374 78.1674 44.9407C77.4152 43.8333 77.0391 42.4869 77.0391 40.9014C77.0391 39.0391 77.5343 37.5165 78.5247 36.3337C79.465 35.2012 80.7062 34.6349 82.2483 34.6349C84.0036 34.6349 85.3639 35.3585 86.3293 36.8056C87.0815 37.9381 87.4576 39.3033 87.4576 40.9014C87.4576 42.7512 86.9624 44.2486 85.9719 45.3937C85.0316 46.4884 83.7904 47.0358 82.2483 47.0358ZM82.2483 45.5258C83.4143 45.5258 84.2919 45.0413 84.8812 44.0724C85.3701 43.2671 85.6146 42.2101 85.6146 40.9014C85.6146 39.3788 85.2949 38.1897 84.6555 37.3341C84.0663 36.5413 83.2639 36.1449 82.2483 36.1449C81.0949 36.1449 80.2173 36.6546 79.6155 37.6738C79.1265 38.5043 78.8821 39.5802 78.8821 40.9014C78.8821 42.4114 79.2018 43.5754 79.8412 44.3933C80.4304 45.1483 81.2328 45.5258 82.2483 45.5258Z" fill="#00D1BD"/>
<path d="M66 34.8803C66.9403 34.7167 67.937 34.6349 68.9902 34.6349C71.0588 34.6349 72.6448 35.2578 73.7481 36.5036C74.6884 37.5606 75.1585 38.9636 75.1585 40.7127C75.1585 42.8393 74.5693 44.4562 73.3908 45.5635C72.3502 46.545 70.9209 47.0358 69.103 47.0358C67.9746 47.0358 66.9403 46.954 66 46.7904V34.8803ZM67.749 45.5069C68.1502 45.595 68.6015 45.639 69.103 45.639C70.5197 45.639 71.5917 45.186 72.3188 44.28C72.9833 43.4495 73.3156 42.2856 73.3156 40.7882C73.3156 39.1775 72.8517 37.9443 71.9239 37.0887C71.1717 36.384 70.2126 36.0317 69.0466 36.0317C68.5325 36.0317 68.1 36.0757 67.749 36.1638V45.5069Z" fill="#00D1BD"/>
</svg>
